<svg width="200" height="141" viewBox="0 0 200 141" fill="none" xmlns="http://www.w3.org/2000/svg">
<path d="M39.3286 46.8088V35.1421H70.7606V46.8088H39.3286ZM60.2316 35.1421H72.6186V109.809H60.2316V35.1421ZM13.7805 109.809V27.3644H26.1675V109.809H13.7805ZM40.1028 0.919922H72.6186V13.3644H40.1028C37.5222 13.2607 35.148 13.6236 32.9803 14.4533C30.9158 15.2829 29.2642 16.7347 28.0255 18.8088C26.7868 20.7792 26.1675 23.631 26.1675 27.3644H13.7805C13.7805 21.1421 14.8644 16.1125 17.0321 12.2755C19.303 8.33474 22.3998 5.48289 26.3223 3.71992C30.3481 1.85326 34.9416 0.919922 40.1028 0.919922ZM0 35.1421H45.5221V46.8088H0V35.1421Z" fill="black"/>
<path d="M113.433 97.5199C107.962 97.5199 102.749 96.2236 97.7942 93.631C92.9426 90.9347 88.9684 87.0977 85.8717 82.1199C82.8782 77.1421 81.3814 71.1792 81.3814 64.231C81.3814 57.2829 82.8782 51.3199 85.8717 46.3421C88.8652 41.2607 92.7878 37.3718 97.6393 34.6755C102.491 31.8755 107.755 30.4755 113.433 30.4755C115.188 30.4755 116.839 30.631 118.388 30.9421C120.039 31.1496 121.587 31.5125 123.033 32.031H154.465V45.4088C150.026 45.4088 145.587 44.5792 141.149 42.9199C136.813 41.2607 133.097 39.5496 130 37.7866L129.381 37.1644C132.994 39.1347 135.936 41.4681 138.207 44.1644C140.581 46.8607 142.336 49.9199 143.471 53.3421C144.71 56.6607 145.329 60.2903 145.329 64.231C145.329 71.1792 143.832 77.1421 140.839 82.1199C137.949 87.0977 134.078 90.9347 129.226 93.631C124.375 96.2236 119.11 97.5199 113.433 97.5199ZM136.194 140.92V137.498C136.194 132.001 134.749 128.009 131.858 125.52C129.071 123.031 124.839 121.787 119.162 121.787H103.678C100.272 121.787 97.278 121.475 94.6974 120.853C92.22 120.335 90.1555 119.505 88.5039 118.364C86.8524 117.224 85.6136 115.824 84.7878 114.164C83.962 112.505 83.5491 110.638 83.5491 108.564C83.5491 104.624 84.7362 101.668 87.1104 99.6977C89.4846 97.6236 92.4265 96.3273 95.9361 95.8088C99.4458 95.2903 102.801 95.2903 106.001 95.8088L113.433 97.5199C107.859 97.831 103.523 98.4014 100.426 99.231C97.4329 100.061 95.9361 101.824 95.9361 104.52C95.9361 106.075 96.5039 107.372 97.6393 108.409C98.878 109.342 100.684 109.809 103.059 109.809H119.162C124.529 109.809 129.433 110.535 133.871 111.987C138.31 113.542 141.871 116.083 144.555 119.609C147.239 123.238 148.581 128.164 148.581 134.387V140.92H136.194ZM113.433 85.8533C116.839 85.8533 119.987 85.0236 122.878 83.3644C125.871 81.7051 128.297 79.2681 130.155 76.0533C132.013 72.8384 132.942 68.8977 132.942 64.231C132.942 59.5644 132.013 55.6236 130.155 52.4088C128.4 49.0903 126.026 46.6014 123.033 44.9421C120.039 43.1792 116.839 42.2977 113.433 42.2977C110.026 42.2977 106.826 43.1792 103.833 44.9421C100.839 46.6014 98.4135 49.0384 96.5555 52.2533C94.6974 55.4681 93.7684 59.4607 93.7684 64.231C93.7684 68.8977 94.6974 72.8384 96.5555 76.0533C98.4135 79.2681 100.839 81.7051 103.833 83.3644C106.826 85.0236 110.026 85.8533 113.433 85.8533Z" fill="black"/>
<path d="M162.839 32.031H175.226V109.809H162.839V32.031ZM200 43.6977C194.736 43.6977 190.297 45.0458 186.684 47.7421C183.174 50.3347 180.387 53.5496 178.323 57.3866C176.362 61.1199 175.071 64.7496 174.452 68.2755L174.297 59.2533C174.297 58.3199 174.503 56.7644 174.916 54.5866C175.329 52.4088 176.103 49.9718 177.239 47.2755C178.374 44.4755 179.871 41.831 181.729 39.3421C183.69 36.7496 186.168 34.6236 189.161 32.9644C192.155 31.3051 195.768 30.4755 200 30.4755V43.6977Z" fill="black"/>
</svg>
